<?xml version="1.0" encoding="UTF-8"?>
<svg version="1.1" xmlns="http://www.w3.org/2000/svg" width="900" height="900">
<path d="M0 0 C1.34067778 0.0019232 2.68135569 0.00376373 4.02203369 0.00552368 C23.03002065 0.04180431 41.67832856 0.45634823 60.5 3.3125 C62.24313477 3.55395752 62.24313477 3.55395752 64.02148438 3.80029297 C150.12154594 15.78934649 232.5178833 53.5695444 297.5 111.3125 C298.32886719 112.04210937 299.15773438 112.77171875 300.01171875 113.5234375 C302.53026858 115.76307354 305.01888834 118.03142138 307.5 120.3125 C308.10634277 120.8684082 308.71268555 121.42431641 309.33740234 121.99707031 C316.63222302 128.70060986 323.85625039 135.37319092 330.36328125 142.859375 C332.39026699 145.18651768 334.4715409 147.45468882 336.57373047 149.71386719 C342.14263076 155.71173104 347.44410125 161.87563274 352.5 168.3125 C353.06315918 169.02486816 353.62631836 169.73723633 354.20654297 170.47119141 C405.85575629 236.07386086 438.91976699 315.34422238 448.5 398.3125 C448.59109039 399.08505127 448.68218079 399.85760254 448.77603149 400.65356445 C450.64926773 417.0318416 450.85941006 433.34102734 450.8125 449.8125 C450.8105768 451.15317778 450.80873627 452.49385569 450.80697632 453.83453369 C450.77069569 472.84252065 450.35615177 491.49082856 447.5 510.3125 C447.33902832 511.47458984 447.17805664 512.63667969 447.01220703 513.83398438 C435.02315351 599.93404594 397.2429556 682.3303833 339.5 747.3125 C338.77039063 748.14136719 338.04078125 748.97023438 337.2890625 749.82421875 C335.04942646 752.34276858 332.78107862 754.83138834 330.5 757.3125 C329.9440918 757.91884277 329.38818359 758.52518555 328.81542969 759.14990234 C322.11189014 766.44472302 315.43930908 773.66875039 307.953125 780.17578125 C305.62598232 782.20276699 303.35781118 784.2840409 301.09863281 786.38623047 C295.10076896 791.95513076 288.93686726 797.25660125 282.5 802.3125 C281.78763184 802.87565918 281.07526367 803.43881836 280.34130859 804.01904297 C214.73863914 855.66825629 135.46827762 888.73226699 52.5 898.3125 C51.72744873 898.40359039 50.95489746 898.49468079 50.15893555 898.58853149 C33.7806584 900.46176773 17.47147266 900.67191006 1 900.625 C-0.34067778 900.6230768 -1.68135569 900.62123627 -3.02203369 900.61947632 C-22.03002065 900.58319569 -40.67832856 900.16865177 -59.5 897.3125 C-60.66208984 897.15152832 -61.82417969 896.99055664 -63.02148438 896.82470703 C-149.12154594 884.83565351 -231.5178833 847.0554556 -296.5 789.3125 C-297.32886719 788.58289063 -298.15773438 787.85328125 -299.01171875 787.1015625 C-301.53026858 784.86192646 -304.01888834 782.59357862 -306.5 780.3125 C-307.10634277 779.7565918 -307.71268555 779.20068359 -308.33740234 778.62792969 C-315.63222302 771.92439014 -322.85625039 765.25180908 -329.36328125 757.765625 C-331.39026699 755.43848232 -333.4715409 753.17031118 -335.57373047 750.91113281 C-341.14263076 744.91326896 -346.44410125 738.74936726 -351.5 732.3125 C-352.06315918 731.60013184 -352.62631836 730.88776367 -353.20654297 730.15380859 C-404.85575629 664.55113914 -437.91976699 585.28077762 -447.5 502.3125 C-447.59109039 501.53994873 -447.68218079 500.76739746 -447.77603149 499.97143555 C-449.64926773 483.5931584 -449.85941006 467.28397266 -449.8125 450.8125 C-449.8105768 449.47182222 -449.80873627 448.13114431 -449.80697632 446.79046631 C-449.77069569 427.78247935 -449.35615177 409.13417144 -446.5 390.3125 C-446.33902832 389.15041016 -446.17805664 387.98832031 -446.01220703 386.79101562 C-434.02315351 300.69095406 -396.2429556 218.2946167 -338.5 153.3125 C-337.77039063 152.48363281 -337.04078125 151.65476563 -336.2890625 150.80078125 C-334.04942646 148.28223142 -331.78107862 145.79361166 -329.5 143.3125 C-328.9440918 142.70615723 -328.38818359 142.09981445 -327.81542969 141.47509766 C-321.11189014 134.18027698 -314.43930908 126.95624961 -306.953125 120.44921875 C-304.62598232 118.42223301 -302.35781118 116.3409591 -300.09863281 114.23876953 C-294.10076896 108.66986924 -287.93686726 103.36839875 -281.5 98.3125 C-280.78763184 97.74934082 -280.07526367 97.18618164 -279.34130859 96.60595703 C-213.73863914 44.95674371 -134.46827762 11.89273301 -51.5 2.3125 C-50.72744873 2.22140961 -49.95489746 2.13031921 -49.15893555 2.03646851 C-32.7806584 0.16323227 -16.47147266 -0.04691006 0 0 Z " fill="#FEFEFE" transform="translate(449.5,-0.3125)"/>
<path d="M0 0 C6.1565625 -0.0309375 6.1565625 -0.0309375 12.4375 -0.0625 C14.38160767 -0.07615601 14.38160767 -0.07615601 16.36499023 -0.09008789 C17.37762939 -0.09258545 18.39026855 -0.09508301 19.43359375 -0.09765625 C20.47572021 -0.10289307 21.51784668 -0.10812988 22.59155273 -0.11352539 C25 0 25 0 26 1 C26.08726223 2.78071246 26.10699041 4.5648314 26.09765625 6.34765625 C26.09515869 7.31968994 26.09266113 8.29172363 26.09008789 9.29321289 C26.08098389 10.53707764 26.07187988 11.78094238 26.0625 13.0625 C26.041875 17.001875 26.02125 20.94125 26 25 C36.56 25 47.12 25 58 25 C58.00586624 28.23128189 58.01173248 31.46256378 58.01777649 34.79176331 C58.07310649 64.51364087 58.14315526 94.23544781 58.22898628 123.95725224 C58.24025267 127.86318412 58.25139141 131.76911636 58.26245117 135.67504883 C58.2657567 136.84131072 58.2657567 136.84131072 58.269129 138.03113347 C58.30437447 150.57357953 58.32931025 163.11602555 58.35034702 175.65850259 C58.37221122 188.5554844 58.40536088 201.4524027 58.44870156 214.34933037 C58.47503675 222.28920833 58.49286504 230.22900737 58.49934604 238.16892677 C58.50528933 244.28646717 58.52703391 250.40386466 58.55427551 256.52134514 C58.56297936 259.00952282 58.56679447 261.49772387 58.56500816 263.98591614 C58.55050124 293.55010402 60.38860103 323.35635077 80 347 C80.7425 347.99 81.485 348.98 82.25 350 C99.9705412 370.75998678 128.81388037 378.64824246 154.86914062 381.29101562 C183.63494995 383.34423489 215.48191228 376.03424105 237.80541992 357.15673828 C247.32093811 348.66938316 255.16056955 337.80049527 260 326 C260.41765625 324.99839844 260.8353125 323.99679687 261.265625 322.96484375 C267.83280739 305.41938959 269.20906641 286.71256352 269.58959961 268.14038086 C269.60847729 267.3224864 269.62735496 266.50459194 269.64680469 265.6619128 C270.20230075 241.5053692 270.22612991 217.34050249 270.30332303 193.17879605 C270.32331291 187.18194911 270.34732077 181.1851191 270.37124526 175.18828689 C270.41836132 163.34697124 270.4617683 151.50564523 270.50268555 139.66430664 C270.54233153 128.19326989 270.5838222 116.72224214 270.62768555 105.2512207 C270.63177196 104.18231063 270.63177196 104.18231063 270.63594092 103.09180642 C270.64962513 99.51521581 270.66334446 95.93862533 270.67708123 92.36203492 C270.79016138 62.90804201 270.89644457 33.45402823 271 4 C286.51 4 302.02 4 318 4 C318 13.24 318 22.48 318 32 C327.24 32 336.48 32 346 32 C346 36.62 346 41.24 346 46 C363.82 46 381.64 46 400 46 C400 59.2 400 72.4 400 86 C405.94 86 411.88 86 418 86 C418.04642885 112.12249116 418.08205605 138.24497228 418.10362434 164.36749649 C418.11390799 176.49842998 418.12791224 188.62933725 418.15087891 200.76025391 C418.17090236 211.34168286 418.18373756 221.92309282 418.18817699 232.50454021 C418.19076929 238.09992626 418.19680068 243.69525799 418.21146011 249.29062653 C418.22518602 254.57322206 418.22919281 259.85574167 418.22621536 265.13835335 C418.22675889 267.06180041 418.2306459 268.98525041 418.23841095 270.90868187 C418.39059471 310.6023985 411.95296259 350.89356874 395 387 C394.66468262 387.71752441 394.32936523 388.43504883 393.98388672 389.17431641 C381.06188214 416.53528345 361.08857426 440.65308591 337 459 C335.95585938 459.79921875 334.91171875 460.5984375 333.8359375 461.421875 C312.18460123 477.6295371 286.77218336 488.22714827 261 496 C260.32227539 496.21317871 259.64455078 496.42635742 258.94628906 496.64599609 C249.24360532 499.68812955 239.43865256 501.80466617 229.4375 503.625 C227.85412842 503.91612671 227.85412842 503.91612671 226.23876953 504.21313477 C205.92717966 507.75243455 185.80205322 509.55854603 165.1875 509.4375 C164.09280396 509.43479095 162.99810791 509.43208191 161.87023926 509.42929077 C134.11256264 509.32595751 106.94299102 506.95337878 80 500 C79.22672363 499.80825195 78.45344727 499.61650391 77.65673828 499.41894531 C45.81983495 491.48872416 15.36664108 478.02245989 -10 457 C-10.88196045 456.27031006 -10.88196045 456.27031006 -11.78173828 455.52587891 C-22.64631942 446.48211311 -32.20838264 437.11365583 -41 426 C-41.81726563 424.98808594 -42.63453125 423.97617187 -43.4765625 422.93359375 C-49.31708274 415.61708478 -54.32773113 408.00117901 -58.94287109 399.85888672 C-59.94013236 398.10527304 -60.96342233 396.36653543 -61.98828125 394.62890625 C-72.46460835 376.13262534 -79.21056146 355.85790116 -83 335 C-83.15017578 334.19014648 -83.30035156 333.38029297 -83.45507812 332.54589844 C-89.81604051 297.53208083 -89.16601927 261.82820128 -89.30332303 226.38179731 C-89.32549628 220.90194689 -89.35272859 215.42212141 -89.37937927 209.94229126 C-89.42888966 199.60879166 -89.47397933 189.2752779 -89.51740164 178.94175112 C-89.56713483 167.15900998 -89.62191671 155.37629391 -89.67708123 143.59357715 C-89.7902601 119.39574053 -89.89656751 95.19788038 -90 71 C-75.81 71 -61.62 71 -47 71 C-47 56.81 -47 42.62 -47 28 C-31.49 27.67 -15.98 27.34 0 27 C0 18.09 0 9.18 0 0 Z " fill="#000000" transform="translate(301,255)"/>
<path d="M0 0 C10.23 0 20.46 0 31 0 C31 11.22 31 22.44 31 34 C21.1 34 11.2 34 1 34 C0.33170964 25.98051565 -0.13262227 18.2551088 -0.0625 10.25 C-0.041875 6.8675 -0.02125 3.485 0 0 Z " fill="#010101" transform="translate(209,189)"/>
<path d="M0 0 C10.23 0 20.46 0 31 0 C31 10.56 31 21.12 31 32 C20.77 32 10.54 32 0 32 C0 21.44 0 10.88 0 0 Z " fill="#010101" transform="translate(273,165)"/>
<path d="M0 0 C10.23 0 20.46 0 31 0 C31 10.23 31 20.46 31 31 C16.04560811 32.15033784 16.04560811 32.15033784 8.6875 32.0625 C7.55924805 32.05573242 7.55924805 32.05573242 6.40820312 32.04882812 C4.60543185 32.03734551 2.80270314 32.01943033 1 32 C0.82876982 29.10437541 0.66297401 26.20859229 0.5 23.3125 C0.45230469 22.51521484 0.40460937 21.71792969 0.35546875 20.89648438 C-0.03184841 13.89710994 0 7.04509888 0 0 Z " fill="#030303" transform="translate(646,239)"/>
<path d="M0 0 C9.24 0 18.48 0 28 0 C28 8.58 28 17.16 28 26 C23.52079403 26.02682159 19.04174649 26.04675177 14.5625 26.0625 C13.28310547 26.07087891 12.00371094 26.07925781 10.68554688 26.08789062 C8.86313477 26.09272461 8.86313477 26.09272461 7.00390625 26.09765625 C5.87799072 26.10289307 4.7520752 26.10812988 3.59204102 26.11352539 C1 26 1 26 0 25 C-0.08737645 23.14630389 -0.10698153 21.28932459 -0.09765625 19.43359375 C-0.09515869 18.42095459 -0.09266113 17.40831543 -0.09008789 16.36499023 C-0.08098389 15.06891846 -0.07187988 13.77284668 -0.0625 12.4375 C-0.041875 8.333125 -0.02125 4.22875 0 0 Z " fill="#060606" transform="translate(187,298)"/>
<path d="M0 0 C8.91 0 17.82 0 27 0 C27 8.58 27 17.16 27 26 C16.8573913 27.12695652 16.8573913 27.12695652 13.4375 27.1328125 C12.33728516 27.13474609 12.33728516 27.13474609 11.21484375 27.13671875 C10.48394531 27.13285156 9.75304687 27.12898438 9 27.125 C8.23816406 27.12886719 7.47632813 27.13273437 6.69140625 27.13671875 C1.12679967 27.12679967 1.12679967 27.12679967 0 26 C-0.08748207 24.07332493 -0.10697334 22.14348139 -0.09765625 20.21484375 C-0.09515869 19.16159912 -0.09266113 18.10835449 -0.09008789 17.02319336 C-0.08098389 15.67491455 -0.07187988 14.32663574 -0.0625 12.9375 C-0.041875 8.668125 -0.02125 4.39875 0 0 Z " fill="#040404" transform="translate(630,179)"/>
<path d="M0 0 C8.91 0 17.82 0 27 0 C27 8.58 27 17.16 27 26 C18.09 26 9.18 26 0 26 C0 17.42 0 8.84 0 0 Z " fill="#F7F4F6" transform="translate(294,305)"/>
<path d="M0 0 C8.91 0 17.82 0 27 0 C27 8.58 27 17.16 27 26 C18.09 26 9.18 26 0 26 C0 17.42 0 8.84 0 0 Z " fill="#020202" transform="translate(217,253)"/>
<path d="M0 0 C8.58 0 17.16 0 26 0 C26.020625 4.269375 26.04125 8.53875 26.0625 12.9375 C26.071604 14.28577881 26.08070801 15.63405762 26.09008789 17.02319336 C26.09258545 18.07643799 26.09508301 19.12968262 26.09765625 20.21484375 C26.10551147 21.84087524 26.10551147 21.84087524 26.11352539 23.49975586 C26 26 26 26 25 27 C23.23140807 27.09946453 21.45888549 27.13080217 19.6875 27.1328125 C18.61242187 27.13410156 17.53734375 27.13539063 16.4296875 27.13671875 C15.29789063 27.13285156 14.16609375 27.12898438 13 27.125 C11.86820313 27.12886719 10.73640625 27.13273437 9.5703125 27.13671875 C8.49523437 27.13542969 7.42015625 27.13414062 6.3125 27.1328125 C5.31863281 27.13168457 4.32476562 27.13055664 3.30078125 27.12939453 C1 27 1 27 0 26 C-0.08748207 24.07332493 -0.10697334 22.14348139 -0.09765625 20.21484375 C-0.09515869 19.16159912 -0.09266113 18.10835449 -0.09008789 17.02319336 C-0.08098389 15.67491455 -0.07187988 14.32663574 -0.0625 12.9375 C-0.041875 8.668125 -0.02125 4.39875 0 0 Z " fill="#050505" transform="translate(151,173)"/>
<path d="M0 0 C7.92 0 15.84 0 24 0 C24 8.25 24 16.5 24 25 C16.08 25 8.16 25 0 25 C0 16.75 0 8.5 0 0 Z " fill="#050505" transform="translate(318,208)"/>
<path d="M0 0 C7.92 0 15.84 0 24 0 C24 7.92 24 15.84 24 24 C20.225625 24.020625 16.45125 24.04125 12.5625 24.0625 C11.37084229 24.071604 10.17918457 24.08070801 8.95141602 24.09008789 C7.55427368 24.09383423 7.55427368 24.09383423 6.12890625 24.09765625 C5.17056885 24.10289307 4.21223145 24.10812988 3.22485352 24.11352539 C1 24 1 24 0 23 C-0.08713831 21.29227642 -0.10700007 19.58101351 -0.09765625 17.87109375 C-0.09515869 16.93966553 -0.09266113 16.0082373 -0.09008789 15.04858398 C-0.08098389 13.85692627 -0.07187988 12.66526855 -0.0625 11.4375 C-0.041875 7.663125 -0.02125 3.88875 0 0 Z " fill="#070707" transform="translate(222,134)"/>
<path d="M0 0 C7.92 0 15.84 0 24 0 C24.020625 3.609375 24.04125 7.21875 24.0625 10.9375 C24.071604 12.07695068 24.08070801 13.21640137 24.09008789 14.39038086 C24.09258545 15.28120361 24.09508301 16.17202637 24.09765625 17.08984375 C24.10551147 18.46450806 24.10551147 18.46450806 24.11352539 19.86694336 C24 22 24 22 23 23 C21.29227642 23.08713831 19.58101351 23.10700007 17.87109375 23.09765625 C16.93966553 23.09515869 16.0082373 23.09266113 15.04858398 23.09008789 C13.26109741 23.07643188 13.26109741 23.07643188 11.4375 23.0625 C7.663125 23.041875 3.88875 23.02125 0 23 C0 15.41 0 7.82 0 0 Z " fill="#070707" transform="translate(703,257)"/>
<path d="M0 0 C7.92 0 15.84 0 24 0 C24 7.26 24 14.52 24 22 C16.08 22 8.16 22 0 22 C0 14.74 0 7.48 0 0 Z " fill="#020202" transform="translate(259,226)"/>
<path d="M0 0 C0.9583374 0.00523682 1.9166748 0.01047363 2.90405273 0.01586914 C4.45576172 0.02070313 4.45576172 0.02070313 6.03881836 0.02563477 C7.12743164 0.03401367 8.21604492 0.04239258 9.33764648 0.05102539 C10.97636719 0.05779297 10.97636719 0.05779297 12.64819336 0.06469727 C15.3572008 0.07652699 18.06618028 0.09446308 20.77514648 0.11352539 C20.77514648 7.37352539 20.77514648 14.63352539 20.77514648 22.11352539 C12.85514648 22.11352539 4.93514648 22.11352539 -3.22485352 22.11352539 C-3.24547852 18.66915039 -3.26610352 15.22477539 -3.28735352 11.67602539 C-3.29645752 10.58878174 -3.30556152 9.50153809 -3.31494141 8.38134766 C-3.31743896 7.53113037 -3.31993652 6.68091309 -3.32250977 5.80493164 C-3.32774658 4.9303833 -3.3329834 4.05583496 -3.33837891 3.15478516 C-3.17796376 0.27041729 -2.88684315 0.14730408 0 0 Z " fill="#0A0A0A" transform="translate(691.224853515625,159.886474609375)"/>
<path d="M0 0 C3.64581687 -0.02887512 7.29160463 -0.04675585 10.9375 -0.0625 C12.49887695 -0.07506836 12.49887695 -0.07506836 14.09179688 -0.08789062 C15.57583008 -0.09272461 15.57583008 -0.09272461 17.08984375 -0.09765625 C18.46450806 -0.10551147 18.46450806 -0.10551147 19.86694336 -0.11352539 C22 0 22 0 23 1 C23.09899523 2.54955559 23.13079524 4.10353673 23.1328125 5.65625 C23.13474609 7.06583984 23.13474609 7.06583984 23.13671875 8.50390625 C23.13285156 9.49261719 23.12898437 10.48132813 23.125 11.5 C23.13080078 12.98306641 23.13080078 12.98306641 23.13671875 14.49609375 C23.13542969 15.43582031 23.13414062 16.37554687 23.1328125 17.34375 C23.13168457 18.21193359 23.13055664 19.08011719 23.12939453 19.97460938 C23 22 23 22 22 23 C20.45044441 23.09899523 18.89646327 23.13079524 17.34375 23.1328125 C15.93416016 23.13474609 15.93416016 23.13474609 14.49609375 23.13671875 C13.50738281 23.13285156 12.51867187 23.12898438 11.5 23.125 C10.51128906 23.12886719 9.52257812 23.13273437 8.50390625 23.13671875 C7.56417969 23.13542969 6.62445312 23.13414062 5.65625 23.1328125 C4.78806641 23.13168457 3.91988281 23.13055664 3.02539062 23.12939453 C1 23 1 23 0 22 C-0.08700342 20.36527118 -0.10701063 18.72685945 -0.09765625 17.08984375 C-0.09443359 16.10048828 -0.09121094 15.11113281 -0.08789062 14.09179688 C-0.07951172 13.05087891 -0.07113281 12.00996094 -0.0625 10.9375 C-0.05798828 9.89271484 -0.05347656 8.84792969 -0.04882812 7.77148438 C-0.03699913 5.1809334 -0.02051689 2.59049441 0 0 Z " fill="#090909" transform="translate(683,212)"/>
<path d="M0 0 C7.59 0 15.18 0 23 0 C23 7.26 23 14.52 23 22 C15.41 22 7.82 22 0 22 C0 14.74 0 7.48 0 0 Z " fill="#000000" transform="translate(306,124)"/>
<path d="M0 0 C3.609375 -0.020625 7.21875 -0.04125 10.9375 -0.0625 C12.07695068 -0.071604 13.21640137 -0.08070801 14.39038086 -0.09008789 C15.28120361 -0.09258545 16.17202637 -0.09508301 17.08984375 -0.09765625 C18.46450806 -0.10551147 18.46450806 -0.10551147 19.86694336 -0.11352539 C22 0 22 0 23 1 C23.08685603 2.56172745 23.10702219 4.12729344 23.09765625 5.69140625 C23.09515869 6.54162354 23.09266113 7.39184082 23.09008789 8.26782227 C23.08098389 9.35506592 23.07187988 10.44230957 23.0625 11.5625 C23.041875 15.006875 23.02125 18.45125 23 22 C15.41 22 7.82 22 0 22 C0 14.74 0 7.48 0 0 Z " fill="#020202" transform="translate(706,115)"/>
<path d="M0 0 C6.93 0 13.86 0 21 0 C21 7.59 21 15.18 21 23 C14.07 23 7.14 23 0 23 C0 15.41 0 7.82 0 0 Z " fill="#020202" transform="translate(586,209)"/>
<path d="M0 0 C0.89460937 -0.00128906 1.78921875 -0.00257813 2.7109375 -0.00390625 C3.65195312 -0.00003906 4.59296875 0.00382812 5.5625 0.0078125 C6.97402344 0.00201172 6.97402344 0.00201172 8.4140625 -0.00390625 C9.75597656 -0.00197266 9.75597656 -0.00197266 11.125 0 C11.95128906 0.00112793 12.77757812 0.00225586 13.62890625 0.00341797 C15.5625 0.1328125 15.5625 0.1328125 16.5625 1.1328125 C16.64935603 2.69453995 16.66952219 4.26010594 16.66015625 5.82421875 C16.65765869 6.67443604 16.65516113 7.52465332 16.65258789 8.40063477 C16.64348389 9.48787842 16.63437988 10.57512207 16.625 11.6953125 C16.604375 15.1396875 16.58375 18.5840625 16.5625 22.1328125 C9.3025 22.1328125 2.0425 22.1328125 -5.4375 22.1328125 C-5.458125 18.6884375 -5.47875 15.2440625 -5.5 11.6953125 C-5.509104 10.60806885 -5.51820801 9.5208252 -5.52758789 8.40063477 C-5.53008545 7.55041748 -5.53258301 6.7002002 -5.53515625 5.82421875 C-5.54039307 4.94967041 -5.54562988 4.07512207 -5.55102539 3.17407227 C-5.3382844 -0.65114805 -3.33296645 0.00454968 0 0 Z " fill="#0A0A0A" transform="translate(735.4375,296.8671875)"/>
<path d="M0 0 C3.64588169 -0.02682987 7.29156846 -0.04675569 10.9375 -0.0625 C12.49887695 -0.07506836 12.49887695 -0.07506836 14.09179688 -0.08789062 C15.57583008 -0.09272461 15.57583008 -0.09272461 17.08984375 -0.09765625 C18.46450806 -0.10551147 18.46450806 -0.10551147 19.86694336 -0.11352539 C22 0 22 0 23 1 C23.08669432 2.4887186 23.10703494 3.981445 23.09765625 5.47265625 C23.09515869 6.28226807 23.09266113 7.09187988 23.09008789 7.92602539 C23.08098389 8.96106201 23.07187988 9.99609863 23.0625 11.0625 C23.041875 14.341875 23.02125 17.62125 23 21 C15.41 21 7.82 21 0 21 C0 14.07 0 7.14 0 0 Z " fill="#050505" transform="translate(726,200)"/>
<path d="M0 0 C7.26 0 14.52 0 22 0 C22 6.93 22 13.86 22 21 C16.8334375 21.0309375 16.8334375 21.0309375 11.5625 21.0625 C10.47525635 21.071604 9.3880127 21.08070801 8.26782227 21.09008789 C7.41760498 21.09258545 6.5673877 21.09508301 5.69140625 21.09765625 C4.37958374 21.10551147 4.37958374 21.10551147 3.04125977 21.11352539 C1 21 1 21 0 20 C-0.08669432 18.5112814 -0.10703494 17.018555 -0.09765625 15.52734375 C-0.09515869 14.71773193 -0.09266113 13.90812012 -0.09008789 13.07397461 C-0.08098389 12.03893799 -0.07187988 11.00390137 -0.0625 9.9375 C-0.0315625 5.0184375 -0.0315625 5.0184375 0 0 Z " fill="#010101" transform="translate(640,129)"/>
<path d="M0 0 C7.26 0 14.52 0 22 0 C22 6.6 22 13.2 22 20 C14.74 20 7.48 20 0 20 C0 13.4 0 6.8 0 0 Z " fill="#040303" transform="translate(150,282)"/>
<path d="M0 0 C7.26 0 14.52 0 22 0 C22.020625 3.114375 22.04125 6.22875 22.0625 9.4375 C22.071604 10.42032959 22.08070801 11.40315918 22.09008789 12.41577148 C22.09258545 13.18477783 22.09508301 13.95378418 22.09765625 14.74609375 C22.10551147 15.93223267 22.10551147 15.93223267 22.11352539 17.14233398 C22 19 22 19 21 20 C19.43827255 20.08685603 17.87270656 20.10702219 16.30859375 20.09765625 C15.36435547 20.09443359 14.42011719 20.09121094 13.44726562 20.08789062 C11.95743164 20.07532227 11.95743164 20.07532227 10.4375 20.0625 C9.44041016 20.05798828 8.44332031 20.05347656 7.41601562 20.04882812 C4.94398513 20.03700023 2.47198528 20.01906415 0 20 C0 13.4 0 6.8 0 0 Z " fill="#050505" transform="translate(169,241)"/>
<path d="M0 0 C7.26 0 14.52 0 22 0 C22 6.27 22 12.54 22 19 C14.74 19 7.48 19 0 19 C0 12.73 0 6.46 0 0 Z " fill="#0A0A0A" transform="translate(747,241)"/>
<path d="M0 0 C1.18613892 0.00785522 1.18613892 0.00785522 2.39624023 0.01586914 C3.16524658 0.0183667 3.93425293 0.02086426 4.7265625 0.0234375 C5.70939209 0.0325415 6.69222168 0.04164551 7.70483398 0.05102539 C12.37639648 0.08196289 12.37639648 0.08196289 17.14233398 0.11352539 C17.14233398 6.71352539 17.14233398 13.31352539 17.14233398 20.11352539 C10.54233398 20.11352539 3.94233398 20.11352539 -2.85766602 20.11352539 C-2.88860352 15.44196289 -2.88860352 15.44196289 -2.92016602 10.67602539 C-2.92927002 9.6931958 -2.93837402 8.71036621 -2.94775391 7.69775391 C-2.95025146 6.92874756 -2.95274902 6.15974121 -2.95532227 5.36743164 C-2.96317749 4.18129272 -2.96317749 4.18129272 -2.97119141 2.97119141 C-2.81664371 0.44225938 -2.52893203 0.15454769 0 0 Z " fill="#090909" transform="translate(355.857666015625,164.886474609375)"/>
<path d="M0 0 C6.93 0 13.86 0 21 0 C21 6.27 21 12.54 21 19 C14.07 19 7.14 19 0 19 C0 12.73 0 6.46 0 0 Z " fill="#050505" transform="translate(746,161)"/>
<path d="M0 0 C1.18613892 0.00785522 1.18613892 0.00785522 2.39624023 0.01586914 C3.67724609 0.02070312 3.67724609 0.02070312 4.98413086 0.02563477 C5.88196289 0.03401367 6.77979492 0.04239258 7.70483398 0.05102539 C8.6065332 0.05553711 9.50823242 0.06004883 10.43725586 0.06469727 C12.67234712 0.07652315 14.90730835 0.09300319 17.14233398 0.11352539 C17.16917386 3.09275133 17.18909435 6.07173834 17.20483398 9.05102539 C17.21321289 9.90116211 17.2215918 10.75129883 17.23022461 11.62719727 C17.23505859 12.84052734 17.23505859 12.84052734 17.23999023 14.07836914 C17.24784546 15.20166626 17.24784546 15.20166626 17.25585938 16.34765625 C17.14233398 18.11352539 17.14233398 18.11352539 16.14233398 19.11352539 C14.72663275 19.2000415 13.30673898 19.22057443 11.88842773 19.21118164 C11.03442383 19.20795898 10.18041992 19.20473633 9.30053711 19.20141602 C8.40270508 19.19303711 7.50487305 19.1846582 6.57983398 19.17602539 C5.67813477 19.17151367 4.77643555 19.16700195 3.84741211 19.16235352 C1.61232085 19.15052764 -0.62264038 19.13404759 -2.85766602 19.11352539 C-2.88450589 16.13429946 -2.90442639 13.15531244 -2.92016602 10.17602539 C-2.92854492 9.32588867 -2.93692383 8.47575195 -2.94555664 7.59985352 C-2.9487793 6.7909668 -2.95200195 5.98208008 -2.95532227 5.14868164 C-2.96055908 4.39981689 -2.9657959 3.65095215 -2.97119141 2.87939453 C-2.81232325 0.40822605 -2.46633109 0.15072203 0 0 Z " fill="#0D0D0D" transform="translate(173.857666015625,117.886474609375)"/>
<path d="M0 0 C6.6 0 13.2 0 20 0 C20 5.94 20 11.88 20 18 C13.4 18 6.8 18 0 18 C0 12.06 0 6.12 0 0 Z " fill="#FAFBFB" transform="translate(597,310)"/>
<path d="M0 0 C5.61 0 11.22 0 17 0 C17 5.94 17 11.88 17 18 C11.39 18 5.78 18 0 18 C0 12.06 0 6.12 0 0 Z " fill="#010101" transform="translate(590,157)"/>
<path d="M0 0 C5.61 0 11.22 0 17 0 C17 5.61 17 11.22 17 17 C11.39 17 5.78 17 0 17 C0 11.39 0 5.78 0 0 Z " fill="#EBE6E9" transform="translate(653,334)"/>
<path d="M0 0 C5.28 0 10.56 0 16 0 C16 5.61 16 11.22 16 17 C10.72 17 5.44 17 0 17 C0 11.39 0 5.78 0 0 Z " fill="#F8F5F7" transform="translate(261,343)"/>
<path d="M0 0 C4.62 0 9.24 0 14 0 C14 4.62 14 9.24 14 14 C9.38 14 4.76 14 0 14 C0 9.38 0 4.76 0 0 Z " fill="#040404" transform="translate(352,240)"/>
<path d="M0 0 C5.94 0 11.88 0 18 0 C18 2.64 18 5.28 18 8 C14.93466836 9.53266582 11.73245728 9.10276471 8.375 9.0625 C7.66859375 9.05798828 6.9621875 9.05347656 6.234375 9.04882812 C4.48954725 9.03703875 2.744763 9.01910324 1 9 C1 7.66666667 1 6.33333333 1 5 C2.65 4.67 4.3 4.34 6 4 C4.02 3.34 2.04 2.68 0 2 C0 1.34 0 0.68 0 0 Z " fill="#E5DDE0" transform="translate(598,316)"/>
<path d="M0 0 C6.6 0 13.2 0 20 0 C19.67 1.65 19.34 3.3 19 5 C12.73 5 6.46 5 0 5 C0 3.35 0 1.7 0 0 Z " fill="#DDD9DB" transform="translate(597,310)"/>
<path d="M0 0 C5.28 0 10.56 0 16 0 C15.01 0.495 15.01 0.495 14 1 C14 2.65 14 4.3 14 6 C9.38 6 4.76 6 0 6 C0 4.02 0 2.04 0 0 Z " fill="#EEE7EB" transform="translate(261,343)"/>
<path d="M0 0 C0.66 1.32 1.32 2.64 2 4 C4.64 4 7.28 4 10 4 C10 4.33 10 4.66 10 5 C7.69 5.33 5.38 5.66 3 6 C4.73956658 7.73956658 7.1936622 7.37190386 9.5625 7.5625 C11.08037109 7.68818359 11.08037109 7.68818359 12.62890625 7.81640625 C13.80259766 7.90728516 13.80259766 7.90728516 15 8 C15 8.33 15 8.66 15 9 C10.05 9 5.1 9 0 9 C0 6.03 0 3.06 0 0 Z " fill="#F7F5F6" transform="translate(653,342)"/>
<path d="M0 0 C3.96 0 7.92 0 12 0 C12 1.32 12 2.64 12 4 C8.04 4 4.08 4 0 4 C0 2.66666667 0 1.33333333 0 0 Z " fill="#E3D6DD" transform="translate(655,345)"/>
<path d="M0 0 C3.96 0 7.92 0 12 0 C10.02 0.99 10.02 0.99 8 2 C9.32 2.66 10.64 3.32 12 4 C8.37 4 4.74 4 1 4 C0.67 2.68 0.34 1.36 0 0 Z " fill="#E9DEE5" transform="translate(262,354)"/>
<path d="M0 0 C4.95 0 9.9 0 15 0 C15 0.33 15 0.66 15 1 C9.06 1.495 9.06 1.495 3 2 C3.99 2.66 4.98 3.32 6 4 C4.02 4 2.04 4 0 4 C0 2.68 0 1.36 0 0 Z " fill="#FBFAFB" transform="translate(653,335)"/>
</svg>
